<?xml version="1.0" encoding="UTF-8"?>
<svg version="1.1" xmlns="http://www.w3.org/2000/svg" width="512" height="512">
<path d="M0 0 C168.96 0 337.92 0 512 0 C512 168.96 512 337.92 512 512 C343.04 512 174.08 512 0 512 C0 343.04 0 174.08 0 0 Z " fill="#59342C" transform="translate(0,0)"/>
<path d="M0 0 C0.82757813 0.68320313 1.65515625 1.36640625 2.5078125 2.0703125 C32.35707708 27.42815168 47.36954693 68.41707359 50.76123047 106.41845703 C51.96762844 124.51442657 51.86176555 143.07819323
49 161 C48.89816406 161.69899414 48.79632813 162.39798828 48.69140625 163.11816406 C44.11989453 194.48381389 30.61294579 223.77658633 9 247 C8.27554687 247.80566406 7.55109375 248.61132812 6.8046875 
249.44140625 C-11.63553311 269.03852283 -36.49032654 281.12491113 -61.875 288.8125 C-62.76952881 289.0904541 -63.66405762 289.3684082 -64.58569336 289.65478516 C-80.6278311 294.28170209 -97.18335283 
295.5084656 -113.80224609 295.39111328 C-116.50018813 295.37499888 -119.19663315 295.39110537 -121.89453125 295.41015625 C-138.04368817 295.43034795 -154.2895985 293.86484324 -169.875 289.4375 
C-170.76590332 289.18774414 -171.65680664 288.93798828 -172.57470703 288.68066406 C-193.68108478 282.46099913 -213.34823839 272.43152673 -230 258 C-230.80566406 257.31550781 -231.61132812 256.63101562 
-232.44140625 255.92578125 C-248.73833326 241.72016569 -259.95292605 225.52473205 -269 206 C-269.54527344 204.84886719 -270.09054687 203.69773437 -270.65234375 202.51171875 C-281.17509305 179.29740923 
-284.22277756 154.12945428 -284.1875 128.875 C-284.18722809 128.14289307 -284.18695618 127.41078613 -284.18667603 126.65649414 C-284.16840763 115.9643693 -283.79744766 105.56140056 -282 95 C-281.77919117 
93.5808467 -281.55916818 92.16157096 -281.33984375 90.7421875 C-278.96095832 75.88079847 -275.08012824 61.76807154 -269 48 C-268.24783203 46.28876953 -268.24783203 46.28876953 -267.48046875 44.54296875 
C-260.93054347 30.59848063 -251.7117279 18.03755993 -241 7 C-240.40445313 6.34257812 -239.80890625 5.68515625 -239.1953125 5.0078125 C-181.23133671 -56.93652214 -61.18872927 -53.5639655 0 0 Z " 
fill="#F2AC60" transform="translate(373,128)"/>
<path d="M0 0 C0.78793945 0.00684814 1.57587891 0.01369629 2.38769531 0.02075195 C11.54648446 0.27264696 18.61388421 2.92638421 25.125 9.4375 C33.54223192 19.63665288 33.31015028 30.66076918 32.125 43.4375 
C29.95569669 52.65471149 25.12978222 59.96001238 17.25 65.1875 C7.61283926 70.6557766 -2.78504926 72.61943692 -13.69921875 69.67578125 C-15.88601097 68.73646303 -17.85477072 67.69143542 -19.875 66.4375 
C-21.421875 65.57125 -21.421875 65.57125 -23 64.6875 C-31.16210464 58.29976593 -35.7731274 50.59327694 -37.875 40.4375 C-38.87141556 30.35900168 -36.61059811 21.8963406 -30.75 13.625 C-23.12381902 
4.49644503 -11.70414074 -0.15677428 0 0 Z " fill="#6E4534" transform="translate(276.875,208.5625)"/>
<path d="M0 0 C7.21064218 4.2166039 12.06317055 9.55993764 15.2578125 17.3203125 C17.36842453 25.42233934 17.76902202 35.25349945 14.0703125 42.8828125 C13.17554586 44.38821375 12.24113604 45.87120412 
11.2578125 47.3203125 C10.88527344 47.90296875 10.51273438 48.485625 10.12890625 49.0859375 C6.83649509 53.6287766 2.21238225 55.97876926 -2.7421875 58.3203125 C-3.51433594 58.68640625 -4.28648437 59.0525 
-5.08203125 59.4296875 C-12.85108761 62.03078126 -21.81687372 61.26446107 -29.1796875 57.8828125 C-36.60048034 53.65236052 -42.68991988 47.39984442 -45.7421875 39.3203125 C-47.45858428 30.99578813 
-48.83132713 19.42925715 -44.9921875 11.5703125 C-44.2496875 10.4978125 -43.5071875 9.4253125 -42.7421875 8.3203125 C-42.2059375 7.4540625 -41.6696875 6.5878125 -41.1171875 5.6953125 C-30.44815125 
-4.97372375 -13.70871524 -6.14528614 0 0 Z " fill="#6D4534" transform="translate(203.7421875,146.6796875)"/>
<path d="M0 0 C6.68520417 4.60313308 10.90413491 10.6199381 12.5546875 18.60546875 C13.57063373 26.44685655 13.06775814 32.77146817 9.14453125 39.74609375 C5.23766563 44.81445996 1.02514124 48.80122419 
-5.16796875 50.74609375 C-15.89648064 51.74379353 -24.56775151 51.01001108 -32.98046875 44.05859375 C-39.32620961 38.04509063 -42.21364726 31.31011455 -42.54296875 22.62109375 C-42.43506713 15.25435581 
-40.00546786 9.91805092 -35.11328125 4.44921875 C-24.75626676 -5.37023444 -12.56789799 -7.26900046 0 0 Z " fill="#6E4634" transform="translate(343.16796875,316.25390625)"/>
<path d="M0 0 C4.43717526 3.27899731 6.8775803 7.8489106 9.3046875 12.703125 C10.00178475 20.13121042 9.9185589 26.60134833 5.3046875 32.703125 C-0.15830264 38.91621483 -6.25980264 41.32374137 -14.39453125 
42.01953125 C-22.65006811 42.27018908 -27.29103134 41.80366263 -33.5078125 36.015625 C-37.01235494 29.19098973 -36.07714461 20.00153402 -34.6953125 12.703125 C-32.19962005 5.35094993 -27.55660803 1.13990988 
-20.6953125 -2.296875 C-13.26835175 -4.62408514 -6.7976079 -3.68468465 0 0 Z " fill="#6E4634" transform="translate(227.6953125,331.296875)"/>
<path d="M0 0 C5.55591254 2.57000945 8.7414575 6.40484471 11.84765625 11.62890625 C13.06334328 16.85636047 12.09505166 21.66705843 10.22265625 26.62890625 C7.30907231 31.10333873 3.63676195 33.9393114 
-1.52734375 35.31640625 C-8.0203527 36.15892471 -12.53483981 35.52134859 -17.90234375 31.6796875 C-21.24547788 28.87499084 -22.63469401 26.52481939 -23.52734375 22.31640625 C-23.72400343 19.48731626 
-23.84915826 16.70982464 -23.90234375 13.87890625 C-23.93972656 13.12802734 -23.97710937 12.37714844 -24.015625 11.60351562 C-24.08335104 7.32548729 -23.91908252 5.80193264 -21.12890625 2.34375 
C-15.28048567 -2.21380297 -7.02172531 -1.89923018 0 0 Z " fill="#6F4634" transform="translate(159.52734375,255.68359375)"/>
<path d="M0 0 C2.83370214 2.16256216 4.06893422 3.47477633 5.375 6.8125 C6.20707365 13.60116436 5.68393731 21.26684957 1.89453125 27.0859375 C-2.16286749 32.04796598 -5.29912546 34.15582075 -11.68359375 
35.125 C-17.49004443 35.60803229 -21.12566551 33.97757417 -25.73828125 30.5 C-29.30845799 27.30679845 -30.42027633 24.71800491 -30.9296875 19.9765625 C-31.13286931 15.13605472 -31.06201302 11.71889737 
-28.9375 7.3125 C-20.97145068 -1.29944521 -11.31642438 -3.70710454 0 0 Z " fill="#6F4634" transform="translate(382.625,221.1875)"/>
<path d="M0 0 C3.89350067 1.95536427 6.80788262 4.89975524 8.9453125 8.63671875 C10.1728939 12.46068912 10.33666943 16.07598341 10.390625 20.07421875 C10.40536865 20.81115967 10.4201123 21.54810059 
10.43530273 22.30737305 C10.3668015 25.92563301 9.95303183 28.18418929 8.04296875 31.28125 C4.78817155 34.37531647 3.16686187 35.35247578 -1.37890625 35.46875 C-16.19763612 34.36095763 -16.19763612 
34.36095763 -21.984375 28.57421875 C-25.71208083 23.14241883 -26.64170087 19.00208381 -25.7109375 12.5625 C-24.33225227 6.99780671 -20.70326678 3.60639186 -16.171875 0.38671875 C-11.58499348 -1.90672201 
-4.84496888 -1.36809373 0 0 Z " fill="#6E4634" transform="translate(312.171875,129.61328125)"/>
<path d="M0 0 C0.33 0 0.66 0 1 0 C1 13.53 1 27.06 1 41 C-12.53 41 -26.06 41 -40 41 C-36.77794772 39.38897386 -33.66489916 38.09649079 -30.3125 36.8125 C-17.71232801 31.5611525 -8.22889841 22.19948407 
-2.96484375 9.59765625 C-1.78548854 6.42246916 -0.80417774 3.28981803 0 0 Z " fill="#000000" transform="translate(511,471)"/>
<path d="M0 0 C1.61102614 3.22205228 2.90350921 6.33510084 4.1875 9.6875 C9.4388475 22.28767199 18.80051593 31.77110159 31.40234375 37.03515625 C34.57753084 38.21451146 37.71018197 39.19582226 41 40 C41
40.33 41 40.66 41 41 C27.47 41 13.94 41 0 41 C0 27.47 0 13.94 0 0 Z " fill="#000000" transform="translate(0,471)"/>
<path d="M0 0 C13.53 0 27.06 0 41 0 C41 13.53 41 27.06 41 41 C39.38897386 37.77794772 38.09649079 34.66489916 36.8125 31.3125 C31.5611525 18.71232801 22.19948407 9.22889841 9.59765625 3.96484375 C6.42246916 
2.78548854 3.28981803 1.80417774 0 1 C0 0.67 0 0.34 0 0 Z " fill="#000000" transform="translate(471,0)"/>
<path d="M0 0 C13.53 0 27.06 0 41 0 C37.77794772 1.61102614 34.66489916 2.90350921 31.3125 4.1875 C18.71232801 9.4388475 9.22889841 18.80051593 3.96484375 31.40234375 C2.78548854 34.57753084 1.80417774 
37.71018197 1 41 C0.67 41 0.34 41 0 41 C0 27.47 0 13.94 0 0 Z " fill="#000000" transform="translate(0,0)"/>
</svg>
